<svg width="29" height="26" viewBox="0 0 29 26" fill="none" xmlns="http://www.w3.org/2000/svg">
<g id="Frame">
<g id="Mask group">
<mask id="mask0_5_1365" style="mask-type:luminance" maskUnits="userSpaceOnUse" x="0" y="11" width="25" height="4">
<g id="Group">
<g id="Group_2">
<path id="Vector" d="M23.6832 14.2612C23.6832 14.1612 23.6832 14.1612 23.6832 14.2612V14.2612ZM24.6832 14.1612C24.3832 14.0612 24.0832 14.1612 23.7832 14.2612C23.9832 14.2612 24.6832 14.5612 24.6832 14.1612ZM23.7832 14.8612L24.0832 14.7612C23.8832 14.6612 23.9832 14.8612 23.7832 14.8612ZM23.7832 14.5612V14.4612L23.5832 14.5612H23.7832ZM14.0832 12.9612C14.0832 12.8612 14.0832 12.8612 14.0832 12.7612V12.9612ZM13.7832 13.2612C13.7832 13.2612 13.6832 13.2612 13.5832 13.2612C13.6832 13.3612 13.7832 13.3612 13.7832 13.2612ZM14.5832 12.9612H14.4832C14.4832 12.9612 14.4832 13.0612 14.5832 12.9612ZM19.4832 13.6612C19.5832 13.5612 19.6832 13.4612 19.7832 13.4612C19.4832 13.3612 19.5832 13.5612 19.4832 13.6612ZM11.9832 14.4612L11.8832 14.3612C11.8832 14.3612 11.8832 14.4612 11.9832 14.4612ZM13.8832 14.4612C13.8832 14.3612 13.8832 14.3612 13.8832 14.2612V14.4612ZM14.8832 13.1612L14.9832 13.0612C14.8832 13.0612 14.8832 13.1612 14.8832 13.1612ZM11.3832 14.4612C11.3832 14.5612 11.2832 14.6612 11.2832 14.6612C11.3832 14.6612 11.3832 14.5612 11.3832 14.4612ZM14.5832 14.3612C14.4832 14.3612 14.4832 14.3612 14.3832 14.4612C14.4832 14.4612 14.4832 14.4612 14.5832 14.3612Z" fill="white"/>
<path id="Vector_2" d="M5.68281 14.5614L6.08281 14.3614C6.08281 14.4614 6.28281 14.4614 6.18281 14.5614L6.28281 14.4614V14.5614C6.98281 14.7614 7.28281 14.0614 8.08281 14.5614L8.38281 14.3614C8.48281 14.3614 8.48281 14.5614 8.68281 14.6614C8.58281 14.4614 8.88281 14.6614 8.88281 14.4614C8.98281 14.5614 8.88281 14.5614 8.88281 14.6614C9.28281 14.8614 9.48281 14.5614 9.88281 14.6614C9.68281 14.5614 9.38281 14.4614 9.18281 14.3614C9.48281 14.2614 9.58281 14.4614 9.88281 14.3614L9.78281 14.4614C9.98281 14.7614 10.2828 14.3614 10.3828 14.6614C10.5828 14.6614 10.6828 14.3614 10.8828 14.3614V14.6614H11.0828V14.4614C11.1828 14.4614 11.1828 14.4614 11.1828 14.5614C11.2828 14.3614 11.4828 14.4614 11.6828 14.3614V14.4614C11.6828 14.4614 11.6828 14.4614 11.6828 14.3614C11.7828 14.5614 11.8828 14.4614 11.9828 14.5614C11.8828 14.5614 11.7828 14.6614 11.7828 14.5614C11.6828 14.7614 11.9828 14.6614 12.0828 14.6614C11.9828 14.5614 12.0828 14.5614 12.1828 14.5614C12.1828 14.5614 12.1828 14.5614 12.1828 14.6614C12.3828 14.7614 12.3828 14.3614 12.5828 14.6614V14.4614L12.7828 14.5614C12.6828 14.2614 12.9828 14.5614 12.9828 14.2614C13.1828 14.2614 12.9828 14.4614 13.0828 14.4614C13.2828 14.5614 13.4828 14.2614 13.5828 14.3614C13.6828 14.2614 13.8828 14.3614 13.9828 14.2614V14.3614C14.0828 14.3614 14.0828 14.2614 14.1828 14.2614C14.1828 14.2614 14.1828 14.2614 14.1828 14.3614C14.3828 14.2614 14.5828 14.2614 14.7828 14.2614C14.7828 14.3614 14.7828 14.4614 14.6828 14.4614C14.8828 14.5614 15.1828 14.2614 15.4828 14.3614V14.4614L15.5828 14.3614C15.5828 14.3614 15.5828 14.4614 15.5828 14.5614C15.8828 14.5614 16.1828 14.6614 16.2828 14.3614C16.1828 14.4614 16.4828 14.5614 16.2828 14.6614C16.5828 14.4614 16.8828 14.5614 17.1828 14.5614L17.2828 14.4614H17.1828C17.2828 14.4614 17.3828 14.3614 17.4828 14.3614C17.4828 14.4614 17.5828 14.5614 17.6828 14.5614C17.6828 14.3614 18.0828 14.7614 18.1828 14.5614C18.1828 14.5614 18.0828 14.5614 18.1828 14.6614C18.5828 14.6614 19.0828 14.4614 19.5828 14.6614C19.5828 14.3614 19.9828 14.4614 20.1828 14.2614C20.2828 14.4614 20.0828 14.3614 19.9828 14.4614C20.0828 14.4614 20.0828 14.6614 20.2828 14.5614V14.6614C20.3828 14.6614 20.1828 14.4614 20.4828 14.4614V14.5614L20.5828 14.3614C21.0828 14.4614 21.3828 14.3614 21.8828 14.5614C21.8828 14.5614 21.8828 14.4614 21.7828 14.4614C21.9828 14.4614 22.0828 14.2614 22.3828 14.4614V14.5614C22.7828 14.6614 22.6828 14.4614 23.0828 14.3614C22.9828 14.3614 22.7828 14.4614 22.7828 14.2614C22.7828 14.1614 22.9828 14.1614 23.0828 14.2614L22.9828 14.0614C22.9828 14.1614 22.7828 14.1614 22.6828 14.1614V14.0614C22.5828 14.1614 22.4828 14.0614 22.2828 14.1614H22.4828C22.4828 14.3614 22.1828 14.1614 22.0828 14.1614C22.0828 13.9614 22.1828 14.0614 21.9828 13.8614C21.6828 13.7614 21.7828 14.0614 21.5828 14.1614L21.6828 14.2614C21.5828 14.2614 21.5828 14.4614 21.3828 14.3614C21.3828 14.2614 21.4828 14.2614 21.4828 14.1614C21.4828 14.0614 21.3828 14.3614 21.1828 14.2614C21.2828 14.0614 21.4828 14.0614 21.6828 14.0614C21.6828 13.9614 21.6828 13.9614 21.6828 13.8614C21.1828 14.0614 20.6828 14.0614 20.1828 13.9614C20.3828 13.7614 20.0828 13.9614 20.0828 13.7614C20.0828 13.9614 19.8828 13.7614 19.7828 13.8614C19.6828 13.6614 19.9828 13.7614 19.8828 13.6614C19.6828 13.6614 19.3828 13.9614 18.9828 13.8614C18.9828 13.7614 19.0828 13.7614 19.0828 13.7614C18.8828 13.7614 18.6828 14.1614 18.4828 13.8614C18.5828 13.7614 18.6828 13.6614 18.7828 13.5614C18.6828 13.5614 18.6828 13.5614 18.6828 13.4614L18.7828 13.3614C18.4828 13.2614 18.6828 13.6614 18.4828 13.7614L18.2828 13.5614C17.9828 13.4614 17.6828 13.4614 17.5828 13.7614C17.4828 13.7614 17.2828 13.7614 17.3828 13.5614C17.4828 13.3614 17.4828 13.1614 17.7828 13.2614C17.8828 13.4614 17.5828 13.4614 17.6828 13.4614C17.7828 13.4614 18.0828 13.5614 18.0828 13.4614H17.7828C17.7828 13.2614 17.8828 13.4614 17.9828 13.3614C17.8828 13.1614 17.6828 13.3614 17.5828 13.2614C17.3828 13.2614 17.3828 13.2614 17.0828 13.3614C17.0828 13.5614 17.1828 13.4614 17.3828 13.5614C16.9828 13.5614 16.4828 13.8614 15.9828 13.5614L16.1828 13.3614C15.9828 13.3614 15.7828 13.4614 15.7828 13.2614C15.9828 13.3614 15.8828 13.1614 15.9828 13.1614C15.9828 13.1614 16.0828 13.1614 15.9828 13.0614C15.8828 13.1614 15.6828 13.2614 15.5828 13.3614C15.6828 13.2614 15.4828 13.2614 15.4828 13.1614C15.3828 13.1614 15.4828 13.2614 15.4828 13.3614C15.3828 13.3614 15.2828 13.4614 15.1828 13.3614C15.0828 13.2614 15.2828 13.2614 15.2828 13.1614L14.8828 13.3614C14.8828 13.3614 14.7828 13.4614 14.7828 13.3614C14.6828 13.2614 14.7828 13.2614 14.8828 13.2614C14.5828 13.0614 14.5828 13.5614 14.2828 13.2614L14.1828 13.3614V13.2614L14.0828 13.3614C13.8828 13.4614 13.9828 13.1614 13.8828 13.0614C13.7828 13.0614 13.7828 12.9614 13.7828 12.9614L13.5828 13.0614C13.4828 13.2614 13.1828 13.2614 13.2828 13.5614C13.1828 13.5614 13.1828 13.4614 13.1828 13.4614C12.9828 13.4614 13.1828 13.2614 12.8828 13.2614C12.8828 13.1614 12.8828 13.2614 12.9828 13.1614C12.8828 13.1614 12.8828 13.1614 12.8828 13.1614V13.0614C12.8828 13.1614 12.7828 13.1614 12.6828 13.1614L12.7828 12.9614C12.6828 13.0614 12.6828 13.0614 12.5828 13.0614L12.6828 12.9614C12.4828 12.9614 12.6828 13.2614 12.4828 13.0614L12.6828 13.1614C12.4828 13.1614 12.5828 13.4614 12.4828 13.5614C12.2828 13.7614 11.8828 13.3614 11.7828 13.7614C11.6828 13.6614 11.7828 13.5614 11.6828 13.4614C11.7828 13.4614 11.9828 13.3614 11.9828 13.1614C12.2828 12.9614 12.1828 13.6614 12.4828 13.3614C12.3828 13.1614 12.2828 13.1614 12.2828 13.2614C12.2828 13.1614 12.3828 13.0614 12.3828 12.9614C12.1828 13.0614 11.8828 12.8614 11.7828 12.8614C11.7828 12.9614 11.5828 13.0614 11.4828 12.9614C11.4828 13.0614 11.1828 13.1614 11.3828 13.3614C11.1828 13.3614 11.1828 13.0614 10.9828 13.2614C10.9828 13.0614 10.7828 13.1614 10.8828 12.9614C10.9828 13.1614 11.1828 12.8614 11.2828 12.7614L10.9828 12.6614C11.0828 12.7614 10.9828 12.8614 10.9828 12.8614L10.8828 12.6614C10.8828 13.0614 10.2828 12.3614 10.1828 12.7614C10.2828 12.7614 10.3828 12.8614 10.3828 12.6614C10.5828 12.7614 10.3828 12.9614 10.4828 13.0614C10.1828 13.1614 9.78281 12.9614 9.48281 13.1614C9.48281 13.0614 9.68281 13.0614 9.68281 12.9614C9.38281 12.8614 9.18281 13.1614 8.98281 13.3614V13.1614C8.78281 13.3614 8.88281 13.0614 8.68281 13.1614C8.68281 13.1614 8.78281 13.2614 8.68281 13.2614C8.48281 13.2614 8.58281 13.0614 8.48281 13.0614C8.28281 13.3614 8.28281 12.8614 8.08281 12.9614V12.8614C7.88281 12.9614 7.48281 12.6614 7.18281 12.6614C7.18281 12.6614 7.38281 12.6614 7.38281 12.8614H7.08281C7.08281 12.8614 6.88281 12.7614 6.98281 12.6614H7.08281L6.98281 12.5614C6.68281 12.6614 7.08281 12.8614 7.08281 13.0614C6.88281 12.9614 6.88281 13.1614 6.78281 13.1614C6.68281 12.9614 6.98281 12.9614 6.78281 12.7614C6.68281 12.6614 6.38281 12.7614 6.28281 12.9614C5.88281 12.7614 5.48281 13.0614 5.38281 12.7614C5.38281 12.7614 5.38281 12.8614 5.28281 12.8614V12.7614C4.98281 12.6614 5.08281 13.0614 4.98281 12.9614C4.98281 12.8614 4.98281 12.8614 4.98281 12.8614C4.68281 12.7614 4.58281 13.2614 4.28281 13.0614V12.9614H4.18281L4.38281 13.0614C4.28281 13.4614 3.88281 12.8614 3.68281 12.9614C3.68281 12.8614 3.88281 12.8614 3.78281 12.7614C3.58281 12.7614 3.68281 13.1614 3.48281 12.9614C3.58281 12.9614 3.48281 12.7614 3.58281 12.6614C3.48281 12.6614 3.38281 12.5614 3.28281 12.6614L3.18281 12.5614C3.08281 12.6614 2.98281 12.5614 2.88281 12.5614V12.4614C2.78281 12.8614 2.58281 12.4614 2.38281 12.4614V12.3614C2.28281 12.3614 2.18281 12.5614 1.98281 12.3614V12.2614C1.88281 12.3614 1.58281 12.1614 1.58281 12.3614C1.48281 12.3614 1.68281 12.1614 1.48281 12.1614C1.48281 12.2614 1.38281 12.2614 1.28281 12.2614C1.28281 12.2614 1.28281 12.2614 1.18281 12.2614C1.18281 12.1614 1.18281 12.1614 1.28281 12.1614C1.28281 12.1614 1.28281 12.1614 1.28281 12.2614V12.1614C1.08281 12.0614 1.18281 12.2614 0.982813 12.1614C0.982813 12.0614 0.982813 12.0614 0.982813 11.9614L0.382812 12.1614C0.382812 12.2614 0.482813 12.2614 0.482813 12.4614H0.682813C0.782813 12.6614 0.582813 12.6614 0.582813 12.6614H0.682813H0.782813C0.782813 13.0614 1.38281 13.0614 1.18281 13.2614C1.28281 13.2614 1.28281 13.1614 1.38281 13.0614C1.38281 13.0614 1.38281 13.1614 1.48281 13.1614L1.28281 13.2614C1.58281 13.2614 1.28281 13.4614 1.58281 13.5614C1.78281 13.4614 2.08281 13.9614 2.28281 13.9614C2.58281 13.9614 2.08281 13.7614 2.28281 13.6614C2.38281 13.6614 2.38281 13.7614 2.48281 13.7614V13.5614C2.68281 13.5614 2.58281 13.7614 2.58281 13.6614C2.78281 13.7614 2.58281 13.7614 2.58281 13.8614C2.58281 13.8614 2.78281 13.7614 2.78281 13.8614C2.78281 13.9614 2.58281 13.9614 2.78281 13.9614C3.18281 13.8614 3.38281 14.0614 3.78281 14.0614V14.1614C3.78281 14.1614 3.88281 14.0614 3.88281 14.1614V14.2614C4.08281 14.1614 4.38281 14.1614 4.58281 14.1614L4.38281 14.3614L4.58281 14.2614V14.4614C4.58281 14.2614 4.88281 14.3614 5.08281 14.3614V14.4614L5.18281 14.3614V14.4614C5.28281 14.4614 5.38281 14.2614 5.58281 14.3614C5.58281 14.2614 5.58281 14.4614 5.68281 14.5614ZM11.0828 14.3614C10.8828 14.2614 10.9828 14.3614 11.0828 14.3614V14.3614ZM19.6828 14.4614H19.4828C19.5828 14.5614 19.6828 14.4614 19.6828 14.4614C19.6828 14.5614 19.6828 14.5614 19.6828 14.4614ZM7.88281 14.1614C7.88281 13.9614 7.98281 14.1614 8.08281 14.0614C7.98281 14.1614 7.98281 14.3614 7.88281 14.1614ZM10.6828 14.1614C10.6828 14.2614 10.5828 14.2614 10.4828 14.3614C10.3828 14.3614 10.4828 14.2614 10.4828 14.1614H10.3828C10.3828 13.9614 10.5828 14.2614 10.6828 14.1614ZM14.2828 14.2614C14.3828 14.2614 14.4828 14.1614 14.4828 14.1614V14.0614C14.3828 14.0614 14.1828 14.0614 14.1828 14.1614C14.1828 14.0614 14.1828 14.3614 14.2828 14.2614ZM9.08281 13.8614C9.18281 13.8614 9.18281 13.5614 9.38281 13.6614L9.28281 13.7614V13.8614C9.28281 13.6614 9.18281 13.8614 9.08281 13.8614ZM15.4828 14.1614C15.5828 14.1614 15.6828 14.0614 15.6828 13.9614C15.6828 13.9614 15.6828 13.9614 15.6828 13.8614C15.6828 13.9614 15.4828 14.0614 15.4828 14.1614C15.3828 14.1614 15.3828 14.1614 15.4828 14.1614ZM15.2828 13.9614C15.1828 13.9614 15.1828 13.7614 15.0828 13.8614C15.0828 13.9614 15.1828 14.2614 14.9828 14.1614C15.0828 13.9614 15.0828 13.8614 15.1828 13.7614L15.2828 13.9614ZM15.0828 14.2614L14.8828 14.1614C14.9828 13.9614 14.9828 14.1614 15.0828 14.2614C15.1828 14.3614 15.1828 14.3614 15.0828 14.2614ZM16.7828 14.3614C16.7828 14.4614 16.7828 14.4614 16.6828 14.4614L16.7828 14.3614C16.6828 14.3614 16.5828 14.2614 16.7828 14.3614ZM15.2828 14.2614H15.4828C15.4828 14.2614 15.2828 14.1614 15.2828 14.2614ZM16.2828 14.1614C16.3828 14.1614 16.4828 14.1614 16.5828 14.1614C16.5828 14.2614 16.3828 14.2614 16.2828 14.1614ZM21.1828 14.3614L21.0828 14.2614H21.1828V14.3614ZM18.0828 13.8614C18.3828 14.0614 18.5828 14.0614 18.7828 14.0614C18.8828 14.1614 18.6828 14.2614 18.6828 14.3614C18.6828 13.8614 18.4828 14.3614 18.2828 14.1614C18.2828 14.1614 18.3828 14.1614 18.3828 14.0614C18.2828 14.0614 18.2828 13.9614 18.1828 14.0614V14.1614C18.1828 14.1614 18.1828 14.1614 18.1828 14.0614C18.1828 13.9614 18.1828 13.9614 18.0828 13.8614ZM16.1828 13.7614C16.1828 13.7614 16.2828 13.8614 16.1828 13.9614C16.0828 13.8614 16.0828 13.7614 16.1828 13.7614ZM16.1828 13.5614L15.9828 13.7614L16.0828 13.6614L15.8828 13.7614C15.8828 13.6614 15.9828 13.5614 16.0828 13.5614C16.0828 13.4614 16.1828 13.4614 16.1828 13.5614ZM13.0828 13.6614H12.9828C13.0828 13.5614 13.1828 13.5614 13.2828 13.5614C13.0828 13.2614 13.2828 13.6614 12.9828 13.4614C13.2828 13.4614 13.0828 13.2614 13.0828 13.1614C13.0828 13.3614 12.6828 13.2614 12.8828 13.6614C12.8828 13.5614 13.0828 13.9614 13.0828 13.6614ZM6.28281 13.1614C6.28281 12.9614 6.58281 13.1614 6.58281 13.2614C6.58281 13.1614 6.38281 13.1614 6.28281 13.1614ZM4.48281 13.1614C4.58281 13.1614 4.68281 12.9614 4.78281 13.1614L4.58281 13.2614C4.58281 13.1614 4.48281 13.2614 4.48281 13.1614ZM3.18281 13.0614V13.2614H3.28281L3.18281 13.0614ZM3.38281 12.7614C3.38281 12.7614 3.18281 12.7614 3.28281 12.8614L3.38281 12.7614ZM2.08281 12.9614V12.7614H1.98281L2.08281 12.9614ZM2.18281 13.0614V12.9614C2.18281 12.9614 2.28281 12.8614 2.38281 12.9614C2.38281 13.0614 2.28281 12.9614 2.28281 13.0614C2.28281 13.0614 2.38281 13.1614 2.48281 13.0614C2.38281 12.8614 2.38281 12.8614 2.38281 12.7614C2.18281 12.6614 2.18281 12.8614 2.18281 12.9614C2.18281 12.9614 2.18281 12.9614 2.18281 13.0614ZM2.88281 13.1614C2.88281 13.0614 2.88281 13.0614 2.88281 13.1614C2.68281 13.0614 2.58281 12.9614 2.68281 12.7614H2.78281C2.68281 12.7614 2.78281 12.7614 2.78281 12.8614C2.88281 12.9614 2.88281 12.8614 2.98281 12.7614C2.88281 12.8614 2.78281 12.9614 2.88281 13.1614C2.88281 13.0614 2.88281 13.0614 2.88281 13.1614C2.98281 13.0614 2.98281 13.0614 2.98281 13.1614C2.98281 13.1614 2.98281 13.0614 2.88281 13.1614C2.98281 13.1614 2.98281 13.1614 2.88281 13.1614ZM2.08281 13.1614V13.2614H1.98281L2.08281 13.1614ZM5.88281 13.2614C5.88281 13.2614 6.08281 13.2614 6.08281 13.1614L6.18281 13.3614C6.08281 13.3614 5.98281 13.4614 6.08281 13.4614C5.88281 13.3614 5.88281 13.4614 5.88281 13.2614ZM10.8828 13.4614C10.8828 13.5614 10.5828 13.3614 10.5828 13.5614C10.4828 13.3614 10.7828 13.4614 10.8828 13.4614ZM10.9828 13.7614C11.0828 13.6614 11.0828 13.5614 11.1828 13.6614H11.0828C11.1828 13.7614 11.1828 13.7614 10.9828 13.7614ZM8.18281 13.7614H8.28281L8.38281 13.6614L8.18281 13.7614ZM6.88281 13.9614C6.98281 13.8614 6.88281 13.7614 6.88281 13.7614C6.88281 13.7614 6.88281 13.7614 6.98281 13.7614C6.98281 13.7614 6.98281 13.7614 6.88281 13.7614C6.78281 13.7614 6.68281 13.7614 6.68281 13.8614C6.78281 13.7614 6.88281 13.7614 6.88281 13.9614ZM4.08281 13.9614C4.18281 13.9614 4.18281 13.8614 4.28281 13.9614C4.18281 13.9614 4.08281 13.9614 4.08281 13.9614ZM7.58281 14.0614C7.58281 13.9614 7.78281 13.9614 7.68281 13.8614H7.58281C7.68281 13.8614 7.58281 13.6614 7.78281 13.7614H7.68281C7.78281 13.8614 7.58281 13.9614 7.78281 13.9614C7.78281 14.0614 7.68281 14.1614 7.58281 14.0614ZM3.88281 14.1614C3.98281 14.1614 3.88281 13.8614 4.08281 14.0614C3.98281 14.0614 4.08281 14.2614 3.88281 14.1614Z" fill="white"/>
<path id="Vector_3" d="M6.08281 12.9618C6.08281 12.9618 5.98281 12.9618 5.88281 12.9618C5.98281 12.9618 6.08281 13.0618 6.08281 12.9618ZM22.4828 13.6618C22.5828 13.3618 22.3828 13.5618 22.2828 13.5618C22.3828 13.5618 22.4828 13.7618 22.4828 13.6618ZM21.8828 14.0618C21.8828 13.9618 21.9828 13.9618 22.0828 13.9618C21.9828 13.8618 21.8828 13.8618 21.8828 14.0618ZM22.4828 13.9618C22.3828 13.8618 22.1828 13.8618 22.0828 13.8618C22.1828 13.8618 22.2828 13.9618 22.4828 13.9618ZM19.7828 13.7618C19.8828 13.5618 20.0828 13.6618 20.0828 13.6618C19.5828 13.4618 20.0828 13.3618 20.1828 13.2618C19.8828 13.3618 19.8828 13.5618 19.7828 13.7618ZM18.8828 13.6618C18.6828 13.6618 18.6828 13.8618 18.6828 13.9618C18.8828 14.0618 18.9828 13.8618 19.1828 13.7618C18.9828 13.8618 18.8828 13.8618 18.8828 13.6618ZM18.0828 13.2618C18.0828 13.2618 18.1828 13.2618 18.1828 13.1618H17.8828C17.7828 13.1618 17.9828 13.1618 18.0828 13.2618ZM17.5828 13.4618C17.3828 13.4618 17.3828 13.1618 17.2828 13.2618L17.3828 13.6618L17.5828 13.4618ZM16.7828 13.2618L16.8828 12.8618C16.6828 12.9618 16.7828 13.2618 16.7828 13.2618ZM16.2828 13.0618L16.3828 12.9618L15.9828 13.0618H16.2828ZM8.78281 12.9618C8.78281 13.2618 9.28281 13.1618 9.38281 13.2618C9.28281 12.8618 9.08281 13.3618 8.78281 12.9618ZM6.58281 13.1618L6.98281 13.0618C6.58281 12.9618 6.88281 13.0618 6.58281 13.1618Z" fill="white"/>
</g>
</g>
</mask>
<g mask="url(#mask0_5_1365)">
<g id="Group_3">
<g id="Group_4">
<path id="Vector_4" d="M0.882812 12.1616C1.18281 12.5616 1.78281 12.7616 2.08281 13.1616C2.18281 13.2616 2.28281 13.2616 2.48281 13.3616C3.28281 13.6616 3.68281 13.9616 4.28281 13.7616C4.38281 13.7616 4.78281 13.9616 4.88281 13.8616C5.18281 13.4616 5.18281 13.8616 5.48281 13.8616C5.68281 13.8616 5.88281 13.8616 6.08281 13.7616C6.68281 13.6616 7.18281 13.6616 7.78281 13.7616C8.48281 13.9616 8.88281 13.5616 9.28281 13.8616C9.38281 13.9616 9.58281 13.8616 9.68281 13.7616C9.78281 13.7616 9.98281 13.7616 9.98281 13.6616C10.0828 13.6616 10.1828 13.4616 10.2828 13.4616C10.9828 13.6616 11.5828 13.5616 12.3828 13.6616C12.5828 13.6616 12.7828 13.6616 12.9828 13.7616C13.6828 13.8616 13.8828 13.5616 14.6828 13.6616C14.8828 13.6616 15.5828 13.7616 15.7828 13.7616C16.3828 13.6616 16.5828 13.9616 17.0828 14.0616C17.2828 14.0616 17.5828 14.0616 17.7828 13.9616C17.9828 13.8616 21.4828 14.1616 21.6828 14.0616" stroke="#1D1D1B" stroke-width="3" stroke-miterlimit="10" stroke-linejoin="round" stroke-dasharray="20 20"/>
</g>
</g>
</g>
</g>
<g id="Mask group_2">
<mask id="mask1_5_1365" style="mask-type:luminance" maskUnits="userSpaceOnUse" x="7" y="6" width="21" height="13">
<g id="Group_5">
<g id="Group_6">
<path id="Vector_5" d="M7.88273 18.1608C8.18273 18.1608 8.48273 18.0608 8.68273 17.8608C8.38273 17.8608 7.78273 17.7608 7.88273 18.1608ZM8.48273 17.1608L8.18273 17.3608C8.48273 17.4608 8.38273 17.2608 8.48273 17.1608ZM8.58273 17.5608L8.68273 17.6608L8.78273 17.4608L8.58273 17.5608ZM24.2827 15.7608C24.2827 15.8608 24.2827 15.9608 24.3827 15.9608L24.2827 15.7608ZM24.6827 14.9608L24.7827 14.8608C24.7827 14.8608 24.7827 14.8608 24.6827 14.9608ZM23.5827 15.8608H23.6827C23.6827 15.8608 23.6827 15.8608 23.5827 15.8608ZM15.7827 17.0608C15.6827 17.1608 15.6827 17.2608 15.5827 17.3608C15.8827 17.4608 15.7827 17.1608 15.7827 17.0608ZM26.0827 15.2608V15.1608C25.9827 15.1608 25.9827 15.2608 26.0827 15.2608ZM24.0827 13.0608C24.0827 13.1608 24.0827 13.1608 24.1827 13.1608L24.0827 13.0608ZM25.0827 15.1608C24.9827 15.2608 24.9827 15.2608 24.9827 15.3608C24.9827 15.3608 25.0827 15.2608 25.0827 15.1608ZM24.8827 14.8608C24.7827 14.8608 24.7827 14.8608 24.8827 14.8608V14.8608ZM15.7827 17.0608L15.8827 16.9608C15.7827 16.9608 15.7827 16.9608 15.7827 17.0608ZM9.58273 17.9608C9.68273 17.9608 9.68273 17.8608 9.68273 17.7608C9.68273 17.8608 9.58273 17.8608 9.58273 17.9608ZM11.6827 9.26084C11.7827 9.26084 11.7827 9.26084 11.6827 9.26084C11.6827 9.16084 11.7827 9.16084 11.6827 9.26084Z" fill="white"/>
<path id="Vector_6" d="M15.3824 13.4608L16.0824 13.2608C16.0824 13.3608 16.3824 13.5608 16.1824 13.6608L16.4824 13.4608V13.6608C17.5824 14.2608 18.4824 13.2608 19.5824 14.1608V14.2608L20.1824 14.0608C20.2824 14.1608 20.3824 14.4608 20.5824 14.5608C20.4824 14.2608 20.9824 14.5608 21.0824 14.3608C21.2824 14.5608 21.0824 14.5608 21.0824 14.6608C21.6824 15.0608 22.1824 14.6608 22.8824 15.0608C22.4824 14.7608 22.1824 14.5608 21.6824 14.3608C22.1824 14.2608 22.2824 14.6608 22.8824 14.6608L22.5824 14.7608C22.8824 15.2608 23.4824 14.6608 23.5824 15.2608C23.8824 15.2608 24.1824 14.8608 24.5824 14.9608L24.4824 15.3608L24.8824 15.4608V15.1608C24.9824 15.1608 25.0824 15.2608 25.0824 15.3608C25.2824 15.0608 25.6824 15.3608 26.0824 15.1608L26.1824 15.3608C26.1824 15.3608 26.1824 15.2608 26.2824 15.2608C26.3824 15.5608 26.6824 15.4608 26.6824 15.7608C26.5824 15.7608 26.2824 15.8608 26.2824 15.7608C25.9824 15.9608 26.6824 15.9608 26.8824 16.0608C26.6824 15.8608 26.8824 15.8608 27.0824 15.8608V15.9608C27.0824 15.9608 27.1824 15.9608 27.1824 16.0608L26.2824 12.2608C26.0824 12.3608 26.1824 12.8608 25.7824 12.4608L25.8824 12.7608L25.5824 12.6608C25.7824 13.2608 25.2824 12.7608 25.3824 13.3608C25.0824 13.4608 25.2824 13.0608 25.1824 13.1608C24.8824 13.1608 24.5824 13.7608 24.3824 13.4608C24.1824 13.7608 23.8824 13.6608 23.7824 13.8608L23.6824 13.6608C23.5824 13.7608 23.4824 13.8608 23.3824 13.8608V13.7608C23.0824 13.9608 22.7824 14.0608 22.3824 14.1608C22.3824 13.9608 22.2824 13.8608 22.4824 13.7608C22.0824 13.5608 21.7824 14.2608 21.2824 14.2608V14.1608L20.8824 14.0608C20.8824 13.9608 20.8824 13.8608 20.7824 13.7608C20.2824 13.8608 19.7824 13.9608 19.6824 14.4608C19.7824 14.3608 19.3824 14.2608 19.5824 13.9608C19.2824 14.3608 18.6824 14.4608 18.1824 14.6608L17.9824 14.8608L18.0824 14.7608C17.8824 14.8608 17.7824 14.9608 17.5824 15.1608C17.4824 15.0608 17.3824 14.8608 17.1824 14.8608C17.2824 15.1608 16.4824 14.7608 16.3824 15.0608C16.2824 14.9608 16.4824 14.9608 16.3824 14.8608C15.7824 15.0608 14.9824 15.6608 14.1824 15.5608C14.3824 16.1608 13.6824 16.1608 13.3824 16.4608C13.1824 16.1608 13.5824 16.2608 13.5824 15.9608C13.3824 16.0608 13.3824 15.5608 13.0824 15.8608C13.0824 15.7608 13.0824 15.7608 13.1824 15.7608C12.9824 15.7608 13.3824 16.1608 12.9824 16.1608L12.8824 15.9608L12.7824 16.3608C11.9824 16.3608 11.4824 16.6608 10.7824 16.5608C10.7824 16.6608 10.8824 16.7608 10.8824 16.7608C10.5824 16.7608 10.3824 17.2608 9.98242 17.0608L10.0824 16.9608C9.48242 16.8608 9.68242 17.3608 9.08242 17.5608C9.18242 17.5608 9.48242 17.3608 9.58242 17.5608C9.58242 17.7608 9.28242 17.7608 9.08242 17.6608L9.28242 17.9608C9.28242 17.7608 9.58242 17.7608 9.68242 17.5608C9.68242 17.5608 9.68242 17.6608 9.68242 17.7608C9.88242 17.6608 9.98242 17.5608 10.1824 17.4608H9.88242C9.88242 17.1608 10.3824 17.3608 10.4824 17.2608C10.5824 17.5608 10.3824 17.5608 10.6824 17.7608C11.2824 17.7608 10.8824 17.3608 11.2824 17.0608L11.1824 16.9608C11.2824 16.8608 11.3824 16.5608 11.6824 16.7608C11.7824 16.9608 11.5824 16.9608 11.4824 17.1608C11.5824 17.2608 11.6824 16.7608 11.8824 16.9608C11.7824 17.2608 11.5824 17.4608 11.1824 17.4608C11.2824 17.5608 11.2824 17.6608 11.2824 17.7608C11.9824 17.2608 12.6824 16.9608 13.4824 16.8608C13.1824 17.3608 13.6824 16.8608 13.6824 17.2608C13.6824 16.9608 13.9824 17.1608 14.1824 17.0608C14.3824 17.3608 13.8824 17.3608 14.0824 17.5608C14.4824 17.3608 14.7824 16.7608 15.3824 16.7608C15.3824 16.8608 15.2824 16.9608 15.2824 16.9608C15.5824 16.7608 15.7824 15.9608 16.1824 16.4608C16.0824 16.6608 15.9824 16.8608 15.8824 17.0608C15.8824 17.0608 15.9824 17.0608 16.0824 17.1608V17.3608C16.4824 17.3608 16.1824 16.8608 16.3824 16.4608L16.7824 16.7608C17.2824 16.8608 17.6824 16.5608 17.7824 16.0608C17.8824 16.0608 18.1824 15.9608 18.1824 16.2608C18.0824 16.6608 18.0824 16.9608 17.5824 17.0608C17.3824 16.7608 17.7824 16.6608 17.6824 16.6608C17.4824 16.7608 17.0824 16.6608 16.9824 16.8608L17.4824 16.7608C17.5824 17.1608 17.2824 16.8608 17.2824 17.0608C17.5824 17.3608 17.6824 16.9608 17.9824 17.0608C18.3824 16.8608 18.2824 16.9608 18.6824 16.7608C18.5824 16.3608 18.4824 16.5608 18.1824 16.4608C18.7824 16.2608 19.3824 15.4608 20.2824 15.8608L19.9824 16.2608C20.2824 16.2608 20.5824 15.8608 20.6824 16.2608C20.3824 16.1608 20.5824 16.4608 20.4824 16.5608C20.4824 16.5608 20.3824 16.6608 20.4824 16.7608C20.6824 16.4608 20.8824 16.2608 21.0824 16.0608C20.9824 16.1608 21.2824 16.2608 21.3824 16.3608C21.5824 16.2608 21.2824 16.1608 21.2824 16.0608C21.3824 16.0608 21.4824 15.6608 21.6824 15.9608C21.8824 16.1608 21.5824 16.2608 21.5824 16.4608L22.0824 15.9608V16.0608C22.0824 15.9608 22.1824 15.8608 22.2824 15.9608C22.3824 16.0608 22.2824 16.1608 22.1824 16.1608C22.6824 16.3608 22.5824 15.4608 23.0824 15.8608L23.1824 15.6608L23.2824 15.7608L23.3824 15.5608C23.6824 15.3608 23.5824 15.8608 23.7824 15.9608C23.8824 15.9608 24.0824 16.1608 23.9824 16.1608L24.2824 15.8608C24.2824 15.5608 24.8824 15.3608 24.5824 14.7608C24.6824 14.7608 24.7824 14.8608 24.7824 14.9608C25.0824 14.8608 24.8824 15.3608 25.2824 15.1608C25.2824 15.2608 25.2824 15.2608 25.1824 15.2608C25.2824 15.2608 25.3824 15.1608 25.3824 15.1608C25.3824 15.2608 25.4824 15.2608 25.4824 15.3608C25.3824 15.1608 25.5824 15.1608 25.6824 15.1608V15.5608C25.6824 15.4608 25.7824 15.2608 25.9824 15.2608C25.9824 15.2608 25.9824 15.2608 26.0824 15.2608V15.5608C26.3824 15.3608 25.8824 15.0608 26.3824 15.1608L25.8824 15.0608C26.2824 14.8608 25.9824 14.4608 26.0824 14.2608C26.2824 13.9608 26.5824 14.0608 26.8824 13.9608V13.8608C26.6824 13.8608 26.4824 13.9608 26.4824 14.0608C26.3824 13.8608 26.4824 13.7608 26.2824 13.5608C26.4824 13.5608 26.7824 13.4608 26.7824 13.1608L27.1824 14.5608C26.7824 14.9608 26.6824 13.7608 26.3824 14.3608C26.4824 14.6608 26.6824 14.5608 26.7824 14.4608C26.8824 14.6608 26.7824 14.8608 26.6824 15.0608C26.8824 14.9608 27.0824 14.9608 27.2824 14.9608L26.6824 12.7608C26.5824 12.6608 26.3824 12.6608 26.2824 12.5608C26.1824 12.6608 25.8824 12.7608 25.7824 12.6608C25.7824 12.8608 25.2824 12.8608 25.4824 13.2608C25.0824 13.2608 25.1824 12.6608 24.8824 13.0608C24.9824 12.7608 24.5824 12.7608 24.7824 12.5608C24.9824 12.8608 25.2824 12.4608 25.4824 12.3608L24.8824 12.0608C24.9824 12.1608 24.8824 12.3608 24.7824 12.3608L24.6824 12.0608C24.6824 12.6608 23.6824 11.3608 23.4824 12.0608C23.6824 12.0608 23.7824 12.3608 23.8824 11.9608C24.1824 12.2608 23.8824 12.4608 23.9824 12.6608C23.4824 12.7608 22.6824 12.2608 22.1824 12.5608C22.2824 12.3608 22.4824 12.4608 22.4824 12.1608C22.0824 11.9608 21.5824 12.4608 21.1824 12.5608L21.2824 12.2608C20.8824 12.4608 21.0824 12.0608 20.6824 12.1608C20.6824 12.1608 20.7824 12.3608 20.6824 12.3608C20.3824 12.2608 20.5824 12.0608 20.3824 11.9608C19.9824 12.3608 20.1824 11.5608 19.5824 11.7608V11.6608C19.1824 11.7608 18.5824 11.1608 18.0824 11.0608C18.0824 11.1608 18.4824 11.1608 18.4824 11.4608H17.8824C17.8824 11.3608 17.5824 11.2608 17.6824 11.1608C17.7824 11.1608 17.8824 11.2608 17.8824 11.2608L17.7824 11.0608C17.2824 11.1608 17.8824 11.5608 17.8824 11.8608C17.5824 11.6608 17.4824 11.9608 17.2824 11.9608C17.1824 11.6608 17.5824 11.6608 17.3824 11.3608C17.1824 11.1608 16.6824 11.2608 16.4824 11.5608C16.1824 10.7608 15.3824 11.1608 15.2824 10.5608C15.2824 10.5608 15.1824 10.7608 15.0824 10.6608L15.1824 10.5608C14.7824 10.2608 14.7824 10.9608 14.5824 10.7608C14.5824 10.6608 14.6824 10.6608 14.6824 10.5608C14.1824 10.2608 13.8824 11.0608 13.3824 10.5608C13.3824 10.4608 13.3824 10.4608 13.4824 10.4608C13.4824 10.3608 13.3824 10.3608 13.2824 10.4608L13.4824 10.7608C13.3824 11.0608 12.8824 10.0608 12.3824 10.0608C12.3824 9.96084 12.7824 10.0608 12.5824 9.86084C12.2824 9.76084 12.2824 10.4608 11.9824 10.0608C12.1824 10.0608 12.0824 9.66084 12.2824 9.66084C12.0824 9.56084 11.8824 9.36084 11.8824 9.56084C11.7824 9.46084 11.7824 9.46084 11.7824 9.36084C11.5824 9.46084 11.3824 9.16084 11.1824 9.06084V8.96084C10.8824 9.46084 10.6824 8.86084 10.3824 8.76084L10.4824 8.56084C10.2824 8.66084 9.98242 8.56084 9.88242 8.36084L9.98242 8.16084C9.78242 8.26084 9.48242 7.76084 9.28242 8.06084C9.18242 7.96084 9.48242 7.76084 9.18242 7.56084C9.08242 7.66084 8.88242 7.66084 8.78242 7.56084C8.78242 7.56084 8.78242 7.46084 8.68242 7.46084C8.68242 7.36084 8.78242 7.26084 8.78242 7.36084C8.88242 7.36084 8.78242 7.36084 8.78242 7.46084L8.88242 7.36084C8.78242 7.16084 8.78242 7.46084 8.48242 7.26084C8.48242 7.06084 8.58242 7.06084 8.68242 6.96084C8.68242 6.96084 8.38242 6.96084 8.18242 6.86084H7.68242C7.68242 6.96084 7.78242 7.16084 7.58242 7.26084L7.88242 7.46084C7.98242 7.76084 7.68242 7.66084 7.48242 7.66084L7.68242 7.76084V7.86084L7.88242 7.96084C7.38242 8.06084 8.38242 8.66084 7.78242 8.66084C7.88242 8.66084 8.08242 8.66084 8.18242 8.56084C8.48242 8.56084 8.38242 8.76084 8.48242 8.86084H8.08242C8.68242 9.16084 7.98242 9.16084 8.38242 9.56084C8.88242 9.66084 9.08242 10.4608 9.38242 10.6608C9.88242 10.8608 9.18242 10.2608 9.58242 10.2608C9.88242 10.3608 9.68242 10.4608 9.88242 10.6608L9.98242 10.3608C10.2824 10.4608 9.98242 10.6608 10.1824 10.6608C10.3824 10.9608 10.0824 10.7608 9.98242 10.9608C10.1824 10.8608 10.3824 10.9608 10.4824 11.0608C10.4824 11.1608 10.1824 11.0608 10.3824 11.1608C11.1824 11.2608 11.3824 11.7608 12.0824 11.9608L11.9824 12.0608C12.0824 12.0608 12.0824 11.9608 12.1824 12.0608V12.1608C12.5824 12.1608 13.0824 12.2608 13.4824 12.3608L13.2824 12.4608L13.6824 12.3608V12.6608C13.7824 12.3608 14.2824 12.7608 14.6824 12.7608V12.9608L14.8824 12.8608L14.7824 13.0608C14.9824 13.0608 15.2824 12.8608 15.5824 13.0608C15.3824 12.9608 15.3824 13.2608 15.3824 13.4608ZM24.9824 14.9608H25.0824C25.0824 15.0608 24.9824 15.0608 24.9824 14.9608H24.7824C24.7824 14.7608 24.8824 14.9608 24.9824 14.9608ZM14.6824 15.7608L14.8824 15.6608C14.7824 15.6608 14.6824 15.7608 14.6824 15.6608C14.6824 15.6608 14.5824 15.6608 14.6824 15.7608ZM24.3824 12.9608L24.4824 12.8608L24.5824 13.0608L24.3824 12.9608ZM19.4824 13.6608C19.5824 13.3608 19.6824 13.7608 19.8824 13.6608C19.7824 13.6608 19.6824 13.9608 19.4824 13.6608ZM24.3824 14.4608C24.3824 14.6608 24.0824 14.6608 24.0824 14.7608C23.9824 14.6608 24.0824 14.5608 24.1824 14.4608C24.0824 14.4608 24.0824 14.4608 23.9824 14.4608C23.9824 14.0608 24.1824 14.6608 24.3824 14.4608ZM24.0824 13.5608L24.1824 13.3608H24.0824V13.5608ZM23.0824 13.6608C22.8824 13.7608 22.7824 13.8608 22.8824 14.0608C22.8824 14.0608 22.8824 14.1608 22.9824 14.1608C23.1824 14.0608 23.4824 14.0608 23.4824 13.7608C23.2824 13.9608 23.1824 13.3608 23.0824 13.6608ZM21.6824 13.5608C21.7824 13.5608 21.9824 13.0608 22.3824 13.4608L22.1824 13.5608H22.2824V13.7608C22.1824 13.2608 21.7824 13.5608 21.6824 13.5608ZM21.2824 14.4608C21.0824 14.5608 20.9824 14.8608 21.0824 15.0608C20.9824 14.8608 21.2824 14.5608 21.3824 14.3608C21.3824 14.4608 21.3824 14.4608 21.2824 14.4608ZM21.5824 14.7608C21.6824 14.7608 21.7824 15.0608 21.8824 14.7608C21.7824 14.5608 21.6824 14.1608 21.9824 14.1608C21.8824 14.5608 21.9824 14.6608 21.6824 14.9608L21.5824 14.7608ZM21.7824 13.9608L22.1824 14.0608C22.1824 14.4608 21.9824 14.0608 21.7824 13.9608H21.6824C21.6824 13.9608 21.6824 13.9608 21.7824 13.9608ZM19.2824 14.6608L19.3824 14.5608C19.3824 14.4608 19.3824 14.4608 19.4824 14.4608L19.3824 14.5608C19.3824 14.6608 19.5824 14.7608 19.2824 14.6608ZM21.4824 14.0608L21.1824 14.1608C21.2824 14.2608 21.4824 14.2608 21.4824 14.0608ZM19.9824 14.7608C19.7824 14.7608 19.6824 14.8608 19.4824 14.8608C19.5824 14.6608 19.8824 14.5608 19.9824 14.7608ZM12.3824 16.5608L12.5824 16.7608L12.3824 16.8608V16.5608ZM14.6824 16.4608H14.7824L14.8824 16.5608L14.6824 16.4608ZM17.2824 16.1608C17.2824 16.1608 17.1824 16.1608 17.1824 16.0608C16.8824 15.9608 16.5824 15.9608 16.2824 16.0608C16.0824 15.9608 16.3824 15.6608 16.3824 15.5608C16.5824 16.4608 16.6824 15.4608 16.9824 15.6608C16.9824 15.7608 16.7824 15.7608 16.7824 15.8608C16.8824 15.9608 16.9824 15.9608 17.0824 15.8608C17.0824 15.7608 17.0824 15.7608 17.0824 15.7608V15.8608C17.0824 15.9608 17.0824 15.9608 17.1824 16.0608L17.2824 16.1608ZM20.3824 15.4608C20.3824 15.3608 20.2824 15.3608 20.3824 15.1608C20.4824 15.2608 20.4824 15.3608 20.3824 15.4608C20.3824 15.4608 20.3824 15.5608 20.2824 15.5608C20.2824 15.5608 20.3824 15.5608 20.3824 15.4608ZM20.3824 15.9608L20.6824 15.5608L20.5824 15.7608L20.7824 15.5608C20.8824 15.7608 20.7824 15.9608 20.5824 15.9608C20.4824 15.9608 20.4824 15.9608 20.3824 15.9608ZM25.0824 14.1608H25.2824C25.1824 14.2608 25.0824 14.3608 24.8824 14.4608C25.3824 14.9608 24.8824 14.3608 25.3824 14.4608C24.8824 14.5608 25.2824 14.8608 25.3824 15.0608C25.3824 14.6608 25.9824 14.7608 25.5824 14.1608C25.4824 14.2608 24.9824 13.6608 25.0824 14.1608ZM16.9824 11.3608C17.0824 11.0608 17.4824 11.4608 17.4824 11.6608C17.3824 11.4608 17.1824 11.4608 16.9824 11.3608ZM13.8824 10.5608C14.0824 10.6608 14.2824 10.3608 14.3824 10.7608H13.9824C13.8824 10.6608 13.7824 10.7608 13.8824 10.5608ZM11.5824 9.76084L11.4824 10.0608H11.5824V9.76084ZM11.9824 9.56084C11.8824 9.56084 11.6824 9.56084 11.7824 9.66084L11.9824 9.56084ZM9.68242 8.96084L9.88242 8.66084L9.68242 8.56084V8.96084ZM9.78242 9.16084C9.78242 9.16084 9.88242 9.06084 9.88242 8.96084C9.98242 8.86084 10.0824 8.96084 10.1824 9.06084C10.1824 9.16084 10.0824 9.06084 9.98242 9.06084C10.0824 9.06084 10.0824 9.26084 10.2824 9.26084C10.1824 9.06084 10.2824 9.06084 10.2824 8.86084C9.88242 8.56084 9.88242 8.86084 9.88242 9.06084C9.78242 9.06084 9.78242 9.16084 9.78242 9.16084ZM10.9824 9.76084C10.9824 9.76084 10.8824 9.66084 10.8824 9.56084C10.6824 9.36084 10.4824 9.26084 10.6824 9.06084L10.8824 9.16084C10.7824 9.16084 10.7824 9.16084 10.7824 9.26084C10.8824 9.46084 10.9824 9.26084 11.1824 9.26084C11.0824 9.36084 10.8824 9.36084 10.8824 9.66084C10.9824 9.66084 10.9824 9.76084 11.0824 9.76084C11.0824 9.76084 11.1824 9.76084 11.1824 9.86084V9.96084C11.1824 9.86084 11.0824 9.86084 11.0824 9.86084C11.0824 9.76084 11.0824 9.86084 10.9824 9.76084ZM9.58242 9.36084C9.58242 9.36084 9.58242 9.46084 9.48242 9.56084H9.38242C9.28242 9.36084 9.48242 9.26084 9.58242 9.36084ZM16.1824 11.3608C16.1824 11.3608 16.5824 11.4608 16.5824 11.2608L16.6824 11.5608C16.4824 11.4608 16.3824 11.6608 16.3824 11.7608C16.1824 11.5608 16.0824 11.6608 16.1824 11.3608ZM24.9824 13.4608C24.8824 13.5608 24.4824 13.2608 24.3824 13.5608C24.1824 13.0608 24.7824 13.2608 24.9824 13.4608ZM25.1824 13.8608C25.2824 13.7608 25.2824 13.4608 25.4824 13.7608C25.3824 13.8608 25.2824 13.6608 25.2824 13.7608C25.2824 13.9608 25.2824 13.9608 25.1824 13.8608ZM20.0824 13.0608L20.3824 13.1608L20.4824 12.9608L20.0824 13.0608ZM17.7824 12.8608H17.9824L17.8824 12.7608C17.8824 12.6608 17.7824 12.5608 17.8824 12.5608C17.7824 12.5608 17.4824 12.4608 17.5824 12.6608C17.6824 12.5608 17.8824 12.6608 17.8824 12.8608H17.7824ZM12.7824 11.6608C12.8824 11.6608 12.8824 11.5608 13.0824 11.7608C12.9824 11.8608 12.7824 11.7608 12.7824 11.6608ZM18.9824 13.3608C18.9824 13.1608 19.2824 13.3608 19.1824 13.0608H18.9824C19.1824 13.1608 19.0824 12.6608 19.2824 12.9608L19.0824 12.8608C19.2824 12.9608 18.8824 13.1608 19.1824 13.2608C19.3824 13.3608 19.0824 13.4608 18.9824 13.3608ZM12.3824 11.9608C12.5824 11.9608 12.4824 11.5608 12.7824 11.8608C12.5824 11.8608 12.5824 12.2608 12.3824 11.9608Z" fill="white"/>
<path id="Vector_7" d="M12.3828 9.66104C12.3828 9.66104 12.2828 9.56104 12.1828 9.56104C12.2828 9.66104 12.3828 9.66104 12.3828 9.66104ZM25.7828 12.561C25.7828 12.561 25.7828 12.661 25.8828 12.661C25.7828 12.661 25.7828 12.661 25.7828 12.561ZM9.88281 18.161C9.88281 18.461 9.98281 18.161 10.0828 18.161C9.98281 18.161 9.88281 18.061 9.88281 18.161ZM9.88281 17.861C9.98281 17.861 10.0828 17.861 10.2828 17.861C10.1828 17.861 9.98281 17.761 9.88281 17.861ZM12.2828 17.361C12.2828 17.561 11.9828 17.461 11.9828 17.461C12.4828 17.561 11.9828 17.761 11.9828 17.961C12.2828 17.861 12.1828 17.661 12.2828 17.361ZM12.8828 17.161H12.7828C12.7828 17.161 12.7828 17.161 12.8828 17.161ZM13.0828 17.261C13.1828 17.161 13.1828 16.961 13.2828 16.861C13.0828 16.761 12.9828 17.061 12.8828 17.161C12.9828 17.161 13.0828 17.061 13.0828 17.261ZM18.1828 17.161C18.1828 17.161 18.0828 17.161 18.0828 17.261L18.3828 17.161C18.4828 17.161 18.2828 17.161 18.1828 17.161ZM18.9828 16.461C19.1828 16.361 19.1828 16.661 19.2828 16.561L19.1828 16.261L18.9828 16.461ZM20.1828 16.561V16.961C20.2828 16.861 20.1828 16.561 20.1828 16.561ZM20.9828 16.661L20.8828 16.761L21.1828 16.561L20.9828 16.661ZM21.1828 11.961C21.1828 12.261 21.5828 12.261 21.7828 12.361C21.5828 11.961 21.3828 12.361 21.1828 11.961ZM12.7828 9.96103L13.1828 10.061C12.8828 9.76104 13.1828 9.96103 12.7828 9.96103Z" fill="white"/>
</g>
</g>
</mask>
<g mask="url(#mask1_5_1365)">
<g id="Group_7">
<g id="Group_8">
<path id="Vector_8" d="M8.18242 6.96045C8.08242 7.36045 8.58242 8.16045 9.08242 8.76045C9.28242 9.06045 9.78242 9.56045 10.1824 9.76045C10.7824 10.1604 11.1824 10.2604 11.7824 10.6604C12.2824 10.9604 12.8824 11.3604 13.4824 11.2604C13.6824 11.2604 14.1824 11.4604 14.3824 11.4604C14.8824 11.5604 14.9824 11.6604 15.4824 11.7604C15.6824 11.7604 15.8824 11.7604 16.0824 11.8604L17.3824 12.3604C18.4824 12.5604 18.7824 12.8604 19.6824 12.9604C19.9824 12.9604 20.2824 13.0604 20.5824 13.1604C20.6824 13.1604 20.7824 13.2604 20.8824 13.2604C21.0824 13.3604 21.2824 13.2604 21.4824 13.2604C22.1824 13.1604 22.7824 13.1604 23.4824 13.2604C24.0824 13.3604 25.6824 12.8604 26.2824 13.7604C27.3824 15.5604 23.8824 14.5604 22.9824 14.8604C22.4824 15.0604 21.8824 15.2604 21.2824 15.4604C20.0824 15.8604 22.0824 15.1604 17.2824 15.9604C16.4824 16.0604 16.1824 15.9604 15.2824 16.3604C14.7824 16.5604 14.1824 16.6604 13.6824 16.6604C13.6824 16.7604 13.3824 16.6604 13.3824 16.6604C13.1824 16.6604 13.3824 16.9604 13.2824 16.9604C13.0824 16.9604 12.9824 16.9604 12.7824 16.9604C11.0824 16.9604 9.48242 17.5604 7.98242 18.1604" stroke="#1D1D1B" stroke-width="3" stroke-miterlimit="10" stroke-linejoin="round" stroke-dasharray="42 42"/>
</g>
</g>
</g>
</g>
</g>
</svg>
